<?xml version="1.0" encoding="utf-8"?>
<!-- Generator: Adobe Illustrator 22.1.0, SVG Export Plug-In . SVG Version: 6.00 Build 0)  -->
<svg version="1.1" xmlns="http://www.w3.org/2000/svg" xmlns:xlink="http://www.w3.org/1999/xlink" x="0px" y="0px"
	 viewBox="0 0 240 240" style="enable-background:new 0 0 240 240;" xml:space="preserve">
<style type="text/css">
	.st0{display:none;}
	.st1{display:inline;}
	.st2{fill:#005EB8;}
	.st3{display:inline;fill:#005EB8;}
	.st4{fill:none;stroke:#005EB8;stroke-width:4;stroke-linecap:round;stroke-linejoin:round;stroke-miterlimit:10;}
	.st5{fill:none;stroke:#005EB8;stroke-width:4.2289;stroke-linecap:round;stroke-linejoin:round;stroke-miterlimit:10;}
	.st6{fill:#005EB8;}
	.st7{fill:none;stroke:#005EB8;stroke-width:3.8462;stroke-linecap:round;stroke-linejoin:round;stroke-miterlimit:10;}
	.st8{fill:none;stroke:#005EB8;stroke-width:4;stroke-miterlimit:10;}
	.st9{fill:none;stroke:#005EB8;stroke-width:4.1398;stroke-linecap:round;stroke-linejoin:round;stroke-miterlimit:10;}
	.st10{fill:none;stroke:#005EB8;stroke-width:3.964;stroke-linecap:round;stroke-linejoin:round;stroke-miterlimit:10;}
	.st11{fill:none;stroke:#005EB8;stroke-width:4.018;stroke-linecap:round;stroke-linejoin:round;stroke-miterlimit:10;}
	.st12{fill:none;stroke:#005EB8;stroke-width:4;stroke-linecap:round;stroke-linejoin:bevel;stroke-miterlimit:10;}
	.st13{fill:none;stroke:#005EB8;stroke-width:3.8153;stroke-linecap:round;stroke-linejoin:round;stroke-miterlimit:10;}
	.st14{fill:none;stroke:#005EB8;stroke-width:3.8841;stroke-linecap:round;stroke-linejoin:round;stroke-miterlimit:10;}
	.st15{fill:none;stroke:#005EB8;stroke-width:4.0218;stroke-linecap:round;stroke-linejoin:round;stroke-miterlimit:10;}
	.st16{fill:none;stroke:#005EB8;stroke-width:3.9182;stroke-linecap:round;stroke-linejoin:round;stroke-miterlimit:10;}
	.st17{fill:none;stroke:#005EB8;stroke-width:3.7359;stroke-linecap:round;stroke-linejoin:round;stroke-miterlimit:10;}
	.st18{fill:none;stroke:#005EB8;stroke-width:4.3689;stroke-linecap:round;stroke-linejoin:round;stroke-miterlimit:10;}
	.st19{fill:none;stroke:#005EB8;stroke-width:4.3135;stroke-linecap:round;stroke-linejoin:round;stroke-miterlimit:10;}
	.st20{fill:none;stroke:#005EB8;stroke-width:3.8138;stroke-linecap:round;stroke-linejoin:round;stroke-miterlimit:10;}
	.st21{fill:#005EB8;stroke:#005EB8;stroke-width:4;stroke-miterlimit:10;}
	.st22{fill:none;stroke:#005EB8;stroke-width:3;stroke-miterlimit:10;}
	.st23{fill:none;stroke:#005EB8;stroke-width:3.6612;stroke-miterlimit:10;}
	.st24{fill:none;stroke:#005EB8;stroke-miterlimit:10;}
	.st25{fill:none;stroke:#005EB8;stroke-width:4.237;stroke-linecap:round;stroke-linejoin:round;stroke-miterlimit:10;}
	.st26{fill:none;stroke:#005EB8;stroke-width:4.0613;stroke-linecap:round;stroke-linejoin:round;stroke-miterlimit:10;}
</style>
<g id="Layer_1">
</g>
<g id="Layer_2">
	<path class="st4" d="M141.4,172.2c-3.5-6.1-8.7-11.6-15.2-14.4c-5.3-2.3-11.7-2.3-16,1.9c-3.1,3-4.4,7.3-4.6,11.5
		c-15-1.5-28.5-10.8-38-22.1c-10.8-12.8-18-29.3-18.6-46.1c-0.3-8,1-16.1,4.4-23.3c5.2,2.3,11.5,2.7,16-1.3c3.6-3.2,5-8.1,5.1-12.8
		c0.3-11.9-6.8-24.4-16.9-30.6c-4.5-2.8-10.3-4.5-15.5-2.4l0,0c-8.8,1.7-16.2,6.8-21.2,14.2C16.3,53.4,14,61.4,13,69.4
		c-2.7,21.1,2.8,43.1,11.1,62.4c9.5,22.3,23.6,43.3,41.7,59.5c7.5,6.7,15.8,12.7,24.9,17.1c7.5,3.6,15.6,6.2,24,6.3
		c8.1,0.1,16.1-2.3,22.4-7.6c1.2-1,2.4-2.1,3.4-3.3c0.7-0.8,1.6-1.5,2.3-2.4c1.4-1.7,2.3-3.7,2.9-5.8c1.4-5,0.8-10.4-0.6-15.2
		C144.1,177.5,142.9,174.8,141.4,172.2z"/>
	<path class="st4" d="M146.4,181.3c0,0,35.7-33.7,35.7,15S231,186,231,186"/>
</g>
</svg>
